<svg xmlns="http://www.w3.org/2000/svg" viewBox="0 0 256 256" width="256" height="256" role="img" aria-label="Meticulous Tech logo">
  <rect width="256" height="256" rx="0" fill="#123524"/>
  <g transform="translate(128 128)">
    <g fill="#31D6B3">
      <rect x="-10" y="-104" width="20" height="104" rx="10"/>
      <rect x="-10" y="-104" width="20" height="104" rx="10" transform="rotate(45)"/>
      <rect x="-10" y="-104" width="20" height="104" rx="10" transform="rotate(90)"/>
      <rect x="-10" y="-104" width="20" height="104" rx="10" transform="rotate(135)"/>
      <rect x="-10" y="-104" width="20" height="104" rx="10" transform="rotate(180)"/>
      <rect x="-10" y="-104" width="20" height="104" rx="10" transform="rotate(225)"/>
      <rect x="-10" y="-104" width="20" height="104" rx="10" transform="rotate(270)"/>
      <rect x="-10" y="-104" width="20" height="104" rx="10" transform="rotate(315)"/>
    </g>
    <g fill="#18CDA8">
      <rect x="-7" y="-68" width="14" height="68" rx="7" transform="rotate(22.5)"/>
      <rect x="-7" y="-68" width="14" height="68" rx="7" transform="rotate(67.5)"/>
      <rect x="-7" y="-68" width="14" height="68" rx="7" transform="rotate(112.5)"/>
      <rect x="-7" y="-68" width="14" height="68" rx="7" transform="rotate(157.5)"/>
      <rect x="-7" y="-68" width="14" height="68" rx="7" transform="rotate(202.5)"/>
      <rect x="-7" y="-68" width="14" height="68" rx="7" transform="rotate(247.5)"/>
      <rect x="-7" y="-68" width="14" height="68" rx="7" transform="rotate(292.5)"/>
      <rect x="-7" y="-68" width="14" height="68" rx="7" transform="rotate(337.5)"/>
    </g>
    <g fill="#14B79B">
      <circle cx="0" cy="-118" r="5"/>
      <circle cx="83.5" cy="-83.5" r="5"/>
      <circle cx="118" cy="0" r="5"/>
      <circle cx="83.5" cy="83.5" r="5"/>
      <circle cx="0" cy="118" r="5"/>
      <circle cx="-83.5" cy="83.5" r="5"/>
      <circle cx="-118" cy="0" r="5"/>
      <circle cx="-83.5" cy="-83.5" r="5"/>
    </g>
    <circle cx="0" cy="0" r="14" fill="#0E2D1F"/>
  </g>
</svg>