<svg xmlns="http://www.w3.org/2000/svg" viewBox="-256 -256 512 512" width="512" height="512">
  <g>
    <g fill="#22E3B6">
      <rect x="-10" y="-185" width="20" height="185" rx="10"/>
      <rect x="-10" y="-185" width="20" height="185" rx="10" transform="rotate(45)"/>
      <rect x="-10" y="-185" width="20" height="185" rx="10" transform="rotate(90)"/>
      <rect x="-10" y="-185" width="20" height="185" rx="10" transform="rotate(135)"/>
      <rect x="-10" y="-185" width="20" height="185" rx="10" transform="rotate(180)"/>
      <rect x="-10" y="-185" width="20" height="185" rx="10" transform="rotate(225)"/>
      <rect x="-10" y="-185" width="20" height="185" rx="10" transform="rotate(270)"/>
      <rect x="-10" y="-185" width="20" height="185" rx="10" transform="rotate(315)"/>
    </g>
    <g fill="#12CFA5">
      <rect x="-7" y="-130" width="14" height="130" rx="7" transform="rotate(22.5)"/>
      <rect x="-7" y="-130" width="14" height="130" rx="7" transform="rotate(67.5)"/>
      <rect x="-7" y="-130" width="14" height="130" rx="7" transform="rotate(112.5)"/>
      <rect x="-7" y="-130" width="14" height="130" rx="7" transform="rotate(157.5)"/>
      <rect x="-7" y="-130" width="14" height="130" rx="7" transform="rotate(202.5)"/>
      <rect x="-7" y="-130" width="14" height="130" rx="7" transform="rotate(247.5)"/>
      <rect x="-7" y="-130" width="14" height="130" rx="7" transform="rotate(292.5)"/>
      <rect x="-7" y="-130" width="14" height="130" rx="7" transform="rotate(337.5)"/>
    </g>
    <g fill="#0FA285">
      <circle cx="0" cy="-212" r="9"/>
      <circle cx="150" cy="-150" r="9"/>
      <circle cx="212" cy="0" r="9"/>
      <circle cx="150" cy="150" r="9"/>
      <circle cx="0" cy="212" r="9"/>
      <circle cx="-150" cy="150" r="9"/>
      <circle cx="-212" cy="0" r="9"/>
      <circle cx="-150" cy="-150" r="9"/>
    </g>
    <circle cx="0" cy="0" r="13" fill="#123524"/>
  </g>
</svg>
